<?xml version="1.0" standalone="no"?>
<svg viewBox="0 0 200 200" xmlns="http://www.w3.org/2000/svg">
  <path fill="#5400FF" d="M34.6,-48.2C49.8,-44.2,70.3,-42.8,79.9,-33.1C89.6,-23.5,88.4,-5.5,82,9C75.6,23.5,64.1,34.5,54,47.6C43.9,60.6,35.3,75.8,23.7,78C12.1,80.1,-2.5,69.2,-14.5,60.6C-26.5,52,-35.8,45.6,-41.7,37.1C-47.6,28.6,-49.9,18.1,-52.8,6.8C-55.6,-4.4,-58.9,-16.4,-55.9,-26.7C-53,-36.9,-43.8,-45.4,-33.4,-51.5C-23.1,-57.7,-11.5,-61.5,-0.9,-60.1C9.8,-58.7,19.5,-52.1,34.6,-48.2Z" transform="translate(100 100)" />
</svg>
